<svg width="80" height="95" viewBox="0 0 80 95" fill="none" xmlns="http://www.w3.org/2000/svg">
<g id="Layer_1" clipPath="url(#clip0_560_2812)">
<path id="Vector" d="M79.87 42.23C79.87 42.87 79.86 43.51 79.82 44.16C79.82 44.34 79.81 44.52 79.79 44.7C79.78 44.9 79.77 45.1 79.75 45.3C79.73 45.64 79.7 45.98 79.66 46.31C79.63 46.64 79.59 46.96 79.55 47.28C79.49 47.83 79.41 48.38 79.31 48.92C79.26 49.23 79.2 49.53 79.15 49.84C78.99 50.63 78.82 51.42 78.61 52.21C78.53 52.53 78.44 52.85 78.35 53.17C78.27 53.48 78.17 53.8 78.07 54.11C77.5 55.96 76.79 57.78 75.93 59.55C75.79 59.84 75.65 60.13 75.5 60.42C75.35 60.7 75.2 60.99 75.05 61.27C74.9 61.55 74.74 61.83 74.58 62.11C74.42 62.39 74.25 62.67 74.09 62.94C73.93 63.22 73.76 63.49 73.58 63.76C72.9 64.83 72.16 65.87 71.35 66.89C71.15 67.14 70.95 67.39 70.75 67.64C70.55 67.89 70.34 68.13 70.13 68.37C69.73 68.83 69.32 69.28 68.9 69.73L68.84 69.79C68.62 70.02 68.4 70.25 68.18 70.47H68.17C67.5 71.14 66.8 71.79 66.09 72.42C65.84 72.63 65.59 72.85 65.33 73.05C65.09 73.25 64.84 73.45 64.59 73.65C64.08 74.05 63.57 74.43 63.05 74.8C62.79 74.99 62.52 75.17 62.26 75.35C61.73 75.71 61.19 76.05 60.64 76.39C60.37 76.56 60.09 76.73 59.81 76.88C59.53 77.04 59.25 77.2 58.97 77.35C58.68 77.5 58.4 77.65 58.11 77.8C57.54 78.09 56.95 78.38 56.37 78.64C56.07 78.78 55.77 78.9 55.48 79.03C55.18 79.16 54.88 79.28 54.57 79.4C53.36 79.88 52.12 80.3 50.86 80.65C50.55 80.74 50.23 80.83 49.91 80.91C49.7 80.97 49.48 81.02 49.26 81.07C49.01 81.13 48.76 81.19 48.51 81.24C48.21 81.31 47.9 81.37 47.6 81.43C47.58 81.43 47.56 81.43 47.54 81.45C47.23 81.5 46.93 81.56 46.62 81.61C46.27 81.67 45.91 81.73 45.54 81.78C45.27 81.82 45 81.85 44.72 81.88C44.49 81.91 44.25 81.94 44.01 81.96C43.68 82 43.34 82.03 43 82.05C42.8 82.07 42.6 82.08 42.4 82.09C42.22 82.11 42.04 82.12 41.86 82.12C41.22 82.15 40.58 82.17 39.93 82.17C37.11 82.17 34.29 81.87 31.52 81.27V60.15C34.18 61.39 37.05 62.02 39.93 62.02H39.94C40.57 62.02 41.21 61.99 41.84 61.93C41.95 61.92 42.06 61.9 42.17 61.89C42.43 61.87 42.69 61.83 42.95 61.79C43.53 61.7 44.09 61.59 44.66 61.45C44.83 61.41 44.99 61.37 45.16 61.32C45.38 61.26 45.6 61.2 45.82 61.13C46.51 60.92 47.19 60.66 47.85 60.38C48.07 60.28 48.29 60.18 48.51 60.07C49.09 59.79 49.65 59.49 50.19 59.16C50.47 59 50.73 58.83 51 58.64C51.26 58.47 51.52 58.29 51.77 58.09C52.27 57.72 52.74 57.33 53.2 56.92C53.45 56.7 53.69 56.47 53.93 56.22C54.15 56 54.37 55.77 54.59 55.53C54.61 55.51 54.63 55.5 54.64 55.48C55.23 54.82 55.78 54.11 56.29 53.37C56.5 53.09 56.69 52.79 56.86 52.49C57.04 52.22 57.19 51.94 57.34 51.66C57.47 51.43 57.59 51.19 57.7 50.96C57.75 50.89 57.78 50.81 57.81 50.74C57.94 50.47 58.06 50.2 58.17 49.93C58.31 49.63 58.42 49.33 58.53 49.03C58.65 48.73 58.75 48.42 58.84 48.11C58.93 47.85 59 47.59 59.06 47.33C59.09 47.26 59.11 47.18 59.12 47.11C59.2 46.81 59.27 46.52 59.33 46.22C59.59 44.93 59.73 43.59 59.73 42.23C59.73 40.87 59.59 39.53 59.33 38.24C59.27 37.94 59.2 37.64 59.12 37.34C59.11 37.27 59.09 37.19 59.06 37.12C59 36.86 58.93 36.6 58.84 36.34C58.75 36.03 58.65 35.72 58.53 35.42C58.31 34.82 58.05 34.22 57.78 33.65C57.65 33.36 57.5 33.07 57.34 32.79C57.2 32.51 57.04 32.23 56.86 31.96C56.71 31.69 56.54 31.42 56.35 31.16C55.83 30.39 55.25 29.65 54.64 28.97C54.63 28.95 54.61 28.93 54.59 28.92C54.37 28.68 54.15 28.45 53.93 28.23C50.34 24.65 45.4 22.43 39.93 22.43C34.46 22.43 29.53 24.65 25.95 28.23H25.94C25.88 28.29 25.82 28.35 25.77 28.41C25.57 28.6 25.39 28.8 25.21 29.01C25.02 29.22 24.84 29.43 24.66 29.64C24.43 29.93 24.2 30.22 23.98 30.52C23.78 30.78 23.6 31.05 23.43 31.31C23.4 31.35 23.38 31.39 23.36 31.42C23.19 31.67 23.03 31.92 22.89 32.17C22.73 32.43 22.58 32.71 22.43 32.98C22.4 33.04 22.37 33.09 22.34 33.15C22.23 33.37 22.12 33.59 22.02 33.82C21.9 34.05 21.8 34.29 21.7 34.53C21.62 34.72 21.54 34.91 21.46 35.11C21.4 35.28 21.33 35.45 21.27 35.62C21.25 35.68 21.23 35.74 21.21 35.81C21.12 36.07 21.04 36.33 20.96 36.59C20.87 36.9 20.78 37.2 20.71 37.51C20.64 37.8 20.57 38.09 20.52 38.38C20.47 38.65 20.42 38.93 20.37 39.22C20.33 39.45 20.3 39.69 20.28 39.93C20.23 40.35 20.19 40.78 20.17 41.21C20.15 41.55 20.14 41.89 20.14 42.23V62.02H0V42.23C0 41.75 0.01 41.27 0.03 40.8C0.04 40.32 0.07 39.83 0.1 39.36C0.14 38.9 0.18 38.44 0.23 37.98C0.4 36.3 0.69 34.63 1.08 32.99C1.15 32.7 1.22 32.41 1.3 32.11C1.36 31.88 1.42 31.65 1.48 31.42C1.74 30.5 2.03 29.59 2.36 28.69C2.46 28.41 2.56 28.13 2.67 27.85C2.99 27.03 3.33 26.21 3.7 25.41C3.7 25.4 3.71 25.4 3.71 25.4C4.21 24.33 4.75 23.29 5.34 22.27C5.49 22.02 5.63 21.76 5.79 21.51C6.05 21.09 6.31 20.66 6.58 20.25C6.63 20.17 6.68 20.1 6.73 20.03C7.05 19.55 7.38 19.08 7.72 18.61C7.9 18.37 8.08 18.13 8.27 17.89C8.58 17.48 8.91 17.08 9.24 16.68C9.48 16.39 9.72 16.1 9.98 15.82C10.16 15.61 10.34 15.41 10.52 15.22C10.9 14.8 11.29 14.39 11.7 13.98C18.93 6.76 28.91 2.29 39.93 2.29C43.58 2.29 47.12 2.78 50.48 3.7L54.18 0L68.17 13.99H68.18C68.29 14.1 68.39 14.21 68.5 14.32H68.51C68.62 14.44 68.74 14.55 68.84 14.67C69.28 15.14 69.71 15.61 70.13 16.09C70.44 16.44 70.74 16.8 71.03 17.17C71.33 17.53 71.61 17.9 71.89 18.27C72.12 18.57 72.34 18.87 72.55 19.18C72.71 19.41 72.88 19.64 73.04 19.88C73.04 19.89 73.05 19.89 73.05 19.9C73.29 20.26 73.53 20.62 73.76 20.99C74.04 21.44 74.32 21.89 74.58 22.35C74.59 22.36 74.59 22.37 74.6 22.39C74.87 22.86 75.13 23.34 75.38 23.82C75.62 24.27 75.85 24.73 76.06 25.2C76.09 25.25 76.12 25.31 76.14 25.37C76.35 25.8 76.54 26.24 76.73 26.68C76.74 26.7 76.74 26.72 76.75 26.74C76.94 27.19 77.13 27.65 77.3 28.11C77.53 28.71 77.74 29.32 77.93 29.93C78.08 30.37 78.21 30.82 78.34 31.27C78.34 31.28 78.35 31.29 78.35 31.29C78.49 31.8 78.62 32.3 78.75 32.81C79 33.83 79.21 34.87 79.37 35.93C79.45 36.44 79.52 36.96 79.59 37.47C79.63 37.81 79.67 38.15 79.69 38.49C79.72 38.71 79.74 38.93 79.75 39.16C79.76 39.28 79.77 39.4 79.78 39.53C79.8 39.89 79.82 40.25 79.84 40.61V40.71C79.86 41.22 79.87 41.72 79.87 42.23Z" fill="#008080"/>
<path id="Vector_2" d="M20.14 62H0V73.38H20.14V62Z" fill="#008080"/>
<path id="Vector_3" d="M10.07 74.8C4.51 74.8 0 79.31 0 84.87C0 90.43 4.51 94.94 10.07 94.94C15.63 94.94 20.14 90.43 20.14 84.87C20.14 79.31 15.63 74.8 10.07 74.8Z" fill="#008080"/>
</g>
<defs>
<clipPath id="clip0_560_2812">
<rect width="79.87" height="94.94" fill="white"/>
</clipPath>
</defs>
</svg>
